<svg version="1.2" xmlns="http://www.w3.org/2000/svg" viewBox="0 0 31 23" width="31" height="23"><defs><clipPath clipPathUnits="userSpaceOnUse" id="cp1"><path d="m-1234-923h1920v3960h-1920z"/></clipPath></defs><style></style><g clip-path="url(#cp1)"><path fill-rule="evenodd" d="m29.2 12v5.8c0 0.3-0.3 0.6-0.6 0.6h-2.1c-0.3 1.5-1.6 2.6-3.1 2.6-1.6 0-2.9-1.1-3.2-2.6h-8.5c-0.3 1.5-1.6 2.6-3.2 2.6-1.6 0-2.9-1.1-3.2-2.6h-2c-0.4 0-0.6-0.3-0.6-0.6 0-0.4 0.2-0.7 0.6-0.7h2c0.3-1.5 1.6-2.6 3.2-2.6 1.6 0 2.9 1.1 3.2 2.6h5.8v-13.8h-15.8c-0.3 0-0.6-0.3-0.6-0.7 0-0.3 0.3-0.6 0.6-0.6h16.5c0.3 0 0.6 0.3 0.6 0.6v2.3h4.2q0.3 0.1 0.5 0.3l5.5 6.4q0.2 0.2 0.2 0.4zm-18.8 6.4q0.1-0.3 0.1-0.6 0-0.4-0.1-0.7c-0.3-0.8-1-1.3-1.9-1.3-0.9 0-1.6 0.5-1.9 1.3q-0.1 0.3-0.1 0.7 0 0.3 0.1 0.6c0.3 0.8 1 1.3 1.9 1.3 0.9 0 1.6-0.5 1.9-1.3zm14.8 0q0.1-0.3 0.1-0.6 0-0.4-0.1-0.7c-0.2-0.8-1-1.3-1.8-1.3-0.9 0-1.7 0.5-1.9 1.3q-0.1 0.3-0.1 0.7 0 0.3 0.1 0.6c0.2 0.8 1 1.3 1.9 1.3 0.8 0 1.6-0.5 1.8-1.3zm2.7-6.2l-5.2-6h-3.9v10.9h1.4c0.3-1.5 1.6-2.6 3.2-2.6 1.5 0 2.8 1.1 3.1 2.6h1.4zm-5.7-5.2l3.1 3.7c0.2 0.2 0.2 0.5 0.1 0.7-0.1 0.2-0.3 0.4-0.5 0.4h-4.4c-0.4 0-0.7-0.3-0.7-0.7 0-0.3 0.3-0.6 0.7-0.6h3l-2.1-2.5h-1.2c-0.3 0-0.6-0.3-0.6-0.6 0-0.4 0.3-0.6 0.6-0.6h1.5q0.3 0 0.5 0.2zm-19.5-0.8c-0.4 0-0.7-0.2-0.7-0.6 0-0.3 0.3-0.6 0.7-0.6h5c0.4 0 0.6 0.3 0.6 0.6 0 0.4-0.2 0.6-0.6 0.6zm4.7 1.6c0.3 0 0.6 0.3 0.6 0.6 0 0.4-0.3 0.6-0.6 0.6h-3c-0.3 0-0.6-0.2-0.6-0.6 0-0.3 0.3-0.6 0.6-0.6z"/></g></svg>