<svg version="1.2" xmlns="http://www.w3.org/2000/svg" viewBox="0 0 34 28" width="34" height="28"><defs><clipPath clipPathUnits="userSpaceOnUse" id="cp1"><path d="m-1433-920h1920v3960h-1920z"/></clipPath></defs><style></style><g clip-path="url(#cp1)"><path fill-rule="evenodd" d="m32 6.7v14.1c0 0.2-0.2 0.5-0.4 0.6l-11 4.5q-0.1 0.1-0.1 0.1 0 0 0 0-0.1 0-0.2 0 0 0 0 0-0.1 0-0.2 0 0 0 0 0 0 0-0.1-0.1l-11-4.5c-0.2-0.1-0.4-0.4-0.4-0.7v-2c0-0.4 0.3-0.7 0.7-0.7 0.4 0 0.7 0.3 0.7 0.7v1.6l9.6 4v-12.4l-9.6-4.2v1.5c0 0.4-0.3 0.7-0.7 0.7-0.4 0-0.7-0.3-0.7-0.7v-2.5q0 0 0 0 0-0.1 0-0.2 0 0 0 0 0.1 0 0.1-0.1 0 0 0 0 0-0.1 0.1-0.1 0-0.1 0-0.1 0 0 0.1-0.1 0 0 0 0 0 0 0 0 0.1 0 0.2 0l11-4.2q0.2-0.1 0.4 0l11.1 4.2q0 0 0.1 0 0 0 0 0 0 0 0 0 0.1 0.1 0.1 0.1 0 0.1 0 0.1 0.1 0 0.1 0.1 0 0 0 0 0.1 0.1 0.1 0.1 0 0 0 0 0 0.1 0 0.2 0 0 0 0zm-13.4-2.8l9 3.7q0 0 0 0l1.9-0.9-9.2-3.4zm-3.1 1.1l8.8 3.9 1.5-0.6-9.1-3.7zm9.5 8.5l1.6-0.5v-3.6l-1.6 0.7zm-4.7-2.9l2.3-1-8.9-4-2.6 1zm10.4-2.9l-2.7 1.1v4.7c0 0.4-0.2 0.6-0.5 0.7l-3 0.9q-0.1 0-0.2 0-0.2 0-0.4-0.1c-0.2-0.1-0.3-0.3-0.3-0.6v-3.7l-2.6 1.1v12.4l9.7-4zm-17.7 6.9h-10.9c-0.4 0-0.7-0.3-0.7-0.7 0-0.3 0.3-0.7 0.7-0.7h10.9c0.4 0 0.7 0.4 0.7 0.7 0 0.4-0.3 0.7-0.7 0.7zm-9.2-3.2c0-0.4 0.3-0.7 0.7-0.7h7c0.4 0 0.7 0.3 0.7 0.7 0 0.4-0.3 0.7-0.7 0.7h-7c-0.4 0-0.7-0.3-0.7-0.7zm7.9 5.8h-7c-0.4 0-0.7-0.3-0.7-0.7 0-0.4 0.3-0.7 0.7-0.7h7c0.4 0 0.7 0.3 0.7 0.7 0 0.4-0.3 0.7-0.7 0.7z"/></g></svg>